<mxfile host="Electron" modified="2024-03-26T08:54:15.629Z" agent="Mozilla/5.0 (Windows NT 10.0; Win64; x64) AppleWebKit/537.36 (KHTML, like Gecko) draw.io/24.1.0 Chrome/120.0.6099.109 Electron/28.1.0 Safari/537.36" etag="0Y0_4Sysw_gIob-rxlwG" version="24.1.0" type="device">
  <diagram name="Page-1" id="e7e014a7-5840-1c2e-5031-d8a46d1fe8dd">
    <mxGraphModel dx="1912" dy="1125" grid="1" gridSize="10" guides="1" tooltips="1" connect="1" arrows="1" fold="1" page="1" pageScale="1" pageWidth="1169" pageHeight="826" background="none" math="0" shadow="0">
      <root>
        <mxCell id="0" />
        <mxCell id="1" parent="0" />
        <mxCell id="2" value="Клиент" style="swimlane;whiteSpace=wrap" parent="1" vertex="1">
          <mxGeometry x="10" y="110" width="880" height="570" as="geometry" />
        </mxCell>
        <mxCell id="cf5-lyPp4YB75nQWrj8D-41" style="edgeStyle=orthogonalEdgeStyle;rounded=0;orthogonalLoop=1;jettySize=auto;html=1;exitX=0.5;exitY=1;exitDx=0;exitDy=0;entryX=0.5;entryY=0;entryDx=0;entryDy=0;" edge="1" parent="2" source="5" target="7">
          <mxGeometry relative="1" as="geometry" />
        </mxCell>
        <mxCell id="5" value="" style="ellipse;shape=startState;fillColor=#000000;strokeColor=#ff0000;" parent="2" vertex="1">
          <mxGeometry x="100" y="40" width="30" height="30" as="geometry" />
        </mxCell>
        <mxCell id="cf5-lyPp4YB75nQWrj8D-42" style="edgeStyle=orthogonalEdgeStyle;rounded=0;orthogonalLoop=1;jettySize=auto;html=1;exitX=0.5;exitY=1;exitDx=0;exitDy=0;" edge="1" parent="2" source="7" target="8">
          <mxGeometry relative="1" as="geometry" />
        </mxCell>
        <mxCell id="7" value="Подача анкеты" style="" parent="2" vertex="1">
          <mxGeometry x="60" y="110" width="110" height="50" as="geometry" />
        </mxCell>
        <mxCell id="cf5-lyPp4YB75nQWrj8D-44" style="edgeStyle=orthogonalEdgeStyle;rounded=0;orthogonalLoop=1;jettySize=auto;html=1;exitX=0.5;exitY=1;exitDx=0;exitDy=0;entryX=0.5;entryY=0;entryDx=0;entryDy=0;" edge="1" parent="2" source="8" target="cf5-lyPp4YB75nQWrj8D-43">
          <mxGeometry relative="1" as="geometry" />
        </mxCell>
        <mxCell id="cf5-lyPp4YB75nQWrj8D-52" style="rounded=0;orthogonalLoop=1;jettySize=auto;html=1;exitX=1;exitY=0;exitDx=0;exitDy=0;entryX=0;entryY=1;entryDx=0;entryDy=0;dashed=1;" edge="1" parent="2" source="8" target="cf5-lyPp4YB75nQWrj8D-51">
          <mxGeometry relative="1" as="geometry" />
        </mxCell>
        <mxCell id="8" value="Заполнение &#xa;основных полей &#xa;анкеты (ArrayAnket)" style="" parent="2" vertex="1">
          <mxGeometry x="60" y="220" width="140" height="50" as="geometry" />
        </mxCell>
        <mxCell id="cf5-lyPp4YB75nQWrj8D-47" style="edgeStyle=orthogonalEdgeStyle;rounded=0;orthogonalLoop=1;jettySize=auto;html=1;exitX=1;exitY=0.5;exitDx=0;exitDy=0;entryX=0.5;entryY=1;entryDx=0;entryDy=0;" edge="1" parent="2" source="cf5-lyPp4YB75nQWrj8D-43" target="cf5-lyPp4YB75nQWrj8D-46">
          <mxGeometry relative="1" as="geometry" />
        </mxCell>
        <mxCell id="cf5-lyPp4YB75nQWrj8D-50" value="Да" style="edgeLabel;html=1;align=center;verticalAlign=middle;resizable=0;points=[];" vertex="1" connectable="0" parent="cf5-lyPp4YB75nQWrj8D-47">
          <mxGeometry x="-0.515" y="-2" relative="1" as="geometry">
            <mxPoint x="1" as="offset" />
          </mxGeometry>
        </mxCell>
        <mxCell id="cf5-lyPp4YB75nQWrj8D-55" style="edgeStyle=orthogonalEdgeStyle;rounded=0;orthogonalLoop=1;jettySize=auto;html=1;exitX=0.5;exitY=1;exitDx=0;exitDy=0;entryX=0.5;entryY=0;entryDx=0;entryDy=0;" edge="1" parent="2" source="cf5-lyPp4YB75nQWrj8D-43" target="cf5-lyPp4YB75nQWrj8D-54">
          <mxGeometry relative="1" as="geometry" />
        </mxCell>
        <mxCell id="cf5-lyPp4YB75nQWrj8D-56" value="Нет" style="edgeLabel;html=1;align=center;verticalAlign=middle;resizable=0;points=[];" vertex="1" connectable="0" parent="cf5-lyPp4YB75nQWrj8D-55">
          <mxGeometry x="-0.2826" y="3" relative="1" as="geometry">
            <mxPoint as="offset" />
          </mxGeometry>
        </mxCell>
        <mxCell id="cf5-lyPp4YB75nQWrj8D-43" value="Есть ли дополнительные вопросы?" style="rhombus;whiteSpace=wrap;html=1;" vertex="1" parent="2">
          <mxGeometry x="30" y="340" width="269.5" height="80" as="geometry" />
        </mxCell>
        <mxCell id="cf5-lyPp4YB75nQWrj8D-49" style="edgeStyle=orthogonalEdgeStyle;rounded=0;orthogonalLoop=1;jettySize=auto;html=1;exitX=0;exitY=0.5;exitDx=0;exitDy=0;entryX=0.5;entryY=0;entryDx=0;entryDy=0;" edge="1" parent="2" source="cf5-lyPp4YB75nQWrj8D-46" target="cf5-lyPp4YB75nQWrj8D-43">
          <mxGeometry relative="1" as="geometry">
            <Array as="points">
              <mxPoint x="220" y="250" />
              <mxPoint x="220" y="300" />
              <mxPoint x="165" y="300" />
            </Array>
          </mxGeometry>
        </mxCell>
        <mxCell id="cf5-lyPp4YB75nQWrj8D-53" style="rounded=0;orthogonalLoop=1;jettySize=auto;html=1;exitX=0.5;exitY=0;exitDx=0;exitDy=0;entryX=0.25;entryY=1;entryDx=0;entryDy=0;dashed=1;" edge="1" parent="2" source="cf5-lyPp4YB75nQWrj8D-46" target="cf5-lyPp4YB75nQWrj8D-51">
          <mxGeometry relative="1" as="geometry" />
        </mxCell>
        <mxCell id="cf5-lyPp4YB75nQWrj8D-46" value="Ответы на доп вопросы&amp;nbsp;&lt;div&gt;&lt;span style=&quot;text-align: left;&quot;&gt;PareValue&amp;lt;Question, Ansver&amp;gt;&lt;/span&gt;&lt;/div&gt;" style="rounded=0;whiteSpace=wrap;html=1;" vertex="1" parent="2">
          <mxGeometry x="290" y="220" width="190" height="60" as="geometry" />
        </mxCell>
        <mxCell id="cf5-lyPp4YB75nQWrj8D-51" value="&lt;p style=&quot;margin:0px;margin-top:4px;text-align:center;text-decoration:underline;&quot;&gt;&lt;b&gt;Object:Ansvers&lt;/b&gt;&lt;/p&gt;&lt;hr size=&quot;1&quot; style=&quot;border-style:solid;&quot;&gt;&lt;p style=&quot;margin:0px;margin-left:8px;&quot;&gt;Ansvers = ArrayAnket[]&lt;br&gt;AddAnsvers = PareValue&amp;lt;Question, Ansver&amp;gt;[]&lt;br&gt;&lt;/p&gt;" style="verticalAlign=top;align=left;overflow=fill;html=1;whiteSpace=wrap;" vertex="1" parent="2">
          <mxGeometry x="260" y="80" width="310" height="70" as="geometry" />
        </mxCell>
        <mxCell id="cf5-lyPp4YB75nQWrj8D-58" style="edgeStyle=orthogonalEdgeStyle;rounded=0;orthogonalLoop=1;jettySize=auto;html=1;exitX=1;exitY=0.5;exitDx=0;exitDy=0;entryX=0;entryY=0;entryDx=0;entryDy=42;entryPerimeter=0;" edge="1" parent="2" source="cf5-lyPp4YB75nQWrj8D-54" target="cf5-lyPp4YB75nQWrj8D-84">
          <mxGeometry relative="1" as="geometry">
            <mxPoint x="310" y="500" as="targetPoint" />
          </mxGeometry>
        </mxCell>
        <mxCell id="cf5-lyPp4YB75nQWrj8D-54" value="Обработка результата" style="rounded=0;whiteSpace=wrap;html=1;" vertex="1" parent="2">
          <mxGeometry x="105" y="470" width="120" height="60" as="geometry" />
        </mxCell>
        <mxCell id="cf5-lyPp4YB75nQWrj8D-84" value="&lt;span style=&quot;font-weight: 400;&quot;&gt;Форимирования пакета данных&amp;nbsp;&lt;/span&gt;&lt;b&gt;Object:Ansvers&lt;/b&gt;" style="shape=folder;fontStyle=1;spacingTop=10;tabWidth=40;tabHeight=14;tabPosition=left;html=1;whiteSpace=wrap;" vertex="1" parent="2">
          <mxGeometry x="370" y="450" width="150" height="70" as="geometry" />
        </mxCell>
        <mxCell id="cf5-lyPp4YB75nQWrj8D-96" style="edgeStyle=orthogonalEdgeStyle;rounded=0;orthogonalLoop=1;jettySize=auto;html=1;exitX=0.5;exitY=1;exitDx=0;exitDy=0;entryX=0.5;entryY=0;entryDx=0;entryDy=0;" edge="1" parent="2" source="cf5-lyPp4YB75nQWrj8D-93" target="cf5-lyPp4YB75nQWrj8D-94">
          <mxGeometry relative="1" as="geometry" />
        </mxCell>
        <mxCell id="cf5-lyPp4YB75nQWrj8D-93" value="Обработка ответа от сервера" style="rounded=0;whiteSpace=wrap;html=1;" vertex="1" parent="2">
          <mxGeometry x="640" y="210" width="120" height="60" as="geometry" />
        </mxCell>
        <mxCell id="cf5-lyPp4YB75nQWrj8D-98" style="edgeStyle=orthogonalEdgeStyle;rounded=0;orthogonalLoop=1;jettySize=auto;html=1;exitX=0;exitY=0.5;exitDx=0;exitDy=0;entryX=0.5;entryY=0;entryDx=0;entryDy=0;" edge="1" parent="2" source="cf5-lyPp4YB75nQWrj8D-94" target="cf5-lyPp4YB75nQWrj8D-97">
          <mxGeometry relative="1" as="geometry" />
        </mxCell>
        <mxCell id="cf5-lyPp4YB75nQWrj8D-102" style="edgeStyle=orthogonalEdgeStyle;rounded=0;orthogonalLoop=1;jettySize=auto;html=1;exitX=1;exitY=0.5;exitDx=0;exitDy=0;entryX=0.5;entryY=0;entryDx=0;entryDy=0;" edge="1" parent="2" source="cf5-lyPp4YB75nQWrj8D-94" target="cf5-lyPp4YB75nQWrj8D-101">
          <mxGeometry relative="1" as="geometry" />
        </mxCell>
        <mxCell id="cf5-lyPp4YB75nQWrj8D-94" value="Успешно?" style="rhombus;whiteSpace=wrap;html=1;" vertex="1" parent="2">
          <mxGeometry x="610" y="310" width="180" height="80" as="geometry" />
        </mxCell>
        <mxCell id="cf5-lyPp4YB75nQWrj8D-100" style="edgeStyle=orthogonalEdgeStyle;rounded=0;orthogonalLoop=1;jettySize=auto;html=1;exitX=0.5;exitY=1;exitDx=0;exitDy=0;entryX=0;entryY=0.5;entryDx=0;entryDy=0;" edge="1" parent="2" source="cf5-lyPp4YB75nQWrj8D-97" target="cf5-lyPp4YB75nQWrj8D-99">
          <mxGeometry relative="1" as="geometry" />
        </mxCell>
        <mxCell id="cf5-lyPp4YB75nQWrj8D-97" value="Переместится на страницу пациента&lt;span style=&quot;color: rgba(0, 0, 0, 0); font-family: monospace; font-size: 0px; text-align: start; text-wrap: nowrap;&quot;&gt;%3CmxGraphModel%3E%3Croot%3E%3CmxCell%20id%3D%220%22%2F%3E%3CmxCell%20id%3D%221%22%20parent%3D%220%22%2F%3E%3CmxCell%20id%3D%222%22%20value%3D%22%22%20style%3D%22ellipse%3Bshape%3DendState%3BfillColor%3D%23000000%3BstrokeColor%3D%23ff0000%22%20vertex%3D%221%22%20parent%3D%221%22%3E%3CmxGeometry%20x%3D%22510%22%20y%3D%22640%22%20width%3D%2230%22%20height%3D%2230%22%20as%3D%22geometry%22%2F%3E%3C%2FmxCell%3E%3C%2Froot%3E%3C%2FmxGraphModel%3E&lt;/span&gt;" style="rounded=0;whiteSpace=wrap;html=1;" vertex="1" parent="2">
          <mxGeometry x="530" y="400" width="120" height="60" as="geometry" />
        </mxCell>
        <mxCell id="cf5-lyPp4YB75nQWrj8D-99" value="" style="ellipse;shape=endState;fillColor=#000000;strokeColor=#ff0000" vertex="1" parent="2">
          <mxGeometry x="710" y="485" width="30" height="30" as="geometry" />
        </mxCell>
        <mxCell id="cf5-lyPp4YB75nQWrj8D-103" style="edgeStyle=orthogonalEdgeStyle;rounded=0;orthogonalLoop=1;jettySize=auto;html=1;exitX=0.5;exitY=1;exitDx=0;exitDy=0;entryX=1;entryY=0.5;entryDx=0;entryDy=0;" edge="1" parent="2" source="cf5-lyPp4YB75nQWrj8D-101" target="cf5-lyPp4YB75nQWrj8D-99">
          <mxGeometry relative="1" as="geometry" />
        </mxCell>
        <mxCell id="cf5-lyPp4YB75nQWrj8D-101" value="Вывод информации об ошибке" style="rounded=0;whiteSpace=wrap;html=1;" vertex="1" parent="2">
          <mxGeometry x="750" y="400" width="120" height="60" as="geometry" />
        </mxCell>
        <mxCell id="cf5-lyPp4YB75nQWrj8D-63" value="Сервер/БД" style="swimlane;whiteSpace=wrap;startSize=23;" vertex="1" parent="1">
          <mxGeometry x="910" y="110" width="170" height="570" as="geometry" />
        </mxCell>
        <mxCell id="cf5-lyPp4YB75nQWrj8D-89" style="edgeStyle=orthogonalEdgeStyle;rounded=0;orthogonalLoop=1;jettySize=auto;html=1;exitX=0.5;exitY=1;exitDx=0;exitDy=0;entryX=0.5;entryY=0;entryDx=0;entryDy=0;" edge="1" parent="cf5-lyPp4YB75nQWrj8D-63" source="cf5-lyPp4YB75nQWrj8D-85" target="cf5-lyPp4YB75nQWrj8D-86">
          <mxGeometry relative="1" as="geometry" />
        </mxCell>
        <mxCell id="cf5-lyPp4YB75nQWrj8D-85" value="Обработка данных" style="rounded=0;whiteSpace=wrap;html=1;" vertex="1" parent="cf5-lyPp4YB75nQWrj8D-63">
          <mxGeometry x="30" y="40" width="120" height="60" as="geometry" />
        </mxCell>
        <mxCell id="cf5-lyPp4YB75nQWrj8D-90" style="edgeStyle=orthogonalEdgeStyle;rounded=0;orthogonalLoop=1;jettySize=auto;html=1;exitX=0.5;exitY=1;exitDx=0;exitDy=0;" edge="1" parent="cf5-lyPp4YB75nQWrj8D-63" source="cf5-lyPp4YB75nQWrj8D-86" target="cf5-lyPp4YB75nQWrj8D-87">
          <mxGeometry relative="1" as="geometry" />
        </mxCell>
        <mxCell id="cf5-lyPp4YB75nQWrj8D-86" value="Формирование запроса" style="rounded=0;whiteSpace=wrap;html=1;" vertex="1" parent="cf5-lyPp4YB75nQWrj8D-63">
          <mxGeometry x="30" y="130" width="120" height="60" as="geometry" />
        </mxCell>
        <mxCell id="cf5-lyPp4YB75nQWrj8D-92" style="edgeStyle=orthogonalEdgeStyle;rounded=0;orthogonalLoop=1;jettySize=auto;html=1;exitX=0.5;exitY=1;exitDx=0;exitDy=0;entryX=0.5;entryY=0;entryDx=0;entryDy=0;" edge="1" parent="cf5-lyPp4YB75nQWrj8D-63" source="cf5-lyPp4YB75nQWrj8D-87" target="cf5-lyPp4YB75nQWrj8D-91">
          <mxGeometry relative="1" as="geometry" />
        </mxCell>
        <mxCell id="cf5-lyPp4YB75nQWrj8D-87" value="Сохранение данных в бд" style="rounded=0;whiteSpace=wrap;html=1;" vertex="1" parent="cf5-lyPp4YB75nQWrj8D-63">
          <mxGeometry x="30" y="210" width="120" height="60" as="geometry" />
        </mxCell>
        <mxCell id="cf5-lyPp4YB75nQWrj8D-91" value="Формирование ответа" style="rounded=0;whiteSpace=wrap;html=1;" vertex="1" parent="cf5-lyPp4YB75nQWrj8D-63">
          <mxGeometry x="30" y="290" width="120" height="60" as="geometry" />
        </mxCell>
        <mxCell id="cf5-lyPp4YB75nQWrj8D-88" style="edgeStyle=orthogonalEdgeStyle;rounded=0;orthogonalLoop=1;jettySize=auto;html=1;exitX=0;exitY=0;exitDx=150;exitDy=14;exitPerimeter=0;entryX=0;entryY=0.5;entryDx=0;entryDy=0;dashed=1;" edge="1" parent="1" source="cf5-lyPp4YB75nQWrj8D-84" target="cf5-lyPp4YB75nQWrj8D-85">
          <mxGeometry relative="1" as="geometry">
            <Array as="points">
              <mxPoint x="530" y="280" />
              <mxPoint x="830" y="280" />
              <mxPoint x="830" y="180" />
            </Array>
          </mxGeometry>
        </mxCell>
        <mxCell id="cf5-lyPp4YB75nQWrj8D-95" style="edgeStyle=orthogonalEdgeStyle;rounded=0;orthogonalLoop=1;jettySize=auto;html=1;exitX=0;exitY=0.5;exitDx=0;exitDy=0;entryX=1;entryY=0.5;entryDx=0;entryDy=0;dashed=1;" edge="1" parent="1" source="cf5-lyPp4YB75nQWrj8D-91" target="cf5-lyPp4YB75nQWrj8D-93">
          <mxGeometry relative="1" as="geometry" />
        </mxCell>
      </root>
    </mxGraphModel>
  </diagram>
</mxfile>
